# xmcd
#
# Track frame offsets:
#	150
#	17250
#	33689
#	49814
#
# Disc length: 890 seconds
#
# Revision: 0
# Processed by: cddbd v1.5.1PL0 Copyright (c) Steve Scherf et al.
# Submitted via: audiograbber 1.83.01
#
DISCID=28037804
DTITLE=Cveta Majtanovic - Nisam ista
DYEAR=2004
DGENRE=Pop
TTITLE0=Nisam ista
TTITLE1=Stop
TTITLE2=Hot stuff
TTITLE3=Things are going my way
EXTD=
EXTT0=
EXTT1=
EXTT2=
EXTT3=
PLAYORDER=
